<svg width="168" height="45" viewBox="0 0 168 45" fill="none" xmlns="http://www.w3.org/2000/svg">
<path d="M60.1758 22.946C60.1758 14.5686 65.9377 9.43494 73.3964 9.43494C80.8552 9.43494 86.617 14.5672 86.617 22.946C86.617 31.3247 80.8538 36.457 73.3964 36.457C65.9391 36.457 60.1758 31.3233 60.1758 22.946ZM78.9637 22.946C78.9637 18.5641 76.8096 15.8764 73.395 15.8764C69.9804 15.8764 67.8263 18.5641 67.8263 22.946C67.8263 27.3278 69.9818 30.0156 73.395 30.0156C76.8082 30.0156 78.9637 27.3515 78.9637 22.946Z" fill="#242424"/>
<path d="M116.713 22.9459C116.713 30.9842 112.211 36.457 105.89 36.457C102.646 36.457 100.127 35.0519 98.4091 32.9215V44.2534H90.9031V10.1381H98.2631V13.1163C99.9336 10.9608 102.499 9.43628 106.011 9.43628C112.281 9.43628 116.712 14.6172 116.712 22.9473L116.713 22.9459ZM109.061 22.9459C109.061 18.4182 106.835 15.8513 103.687 15.8513C100.54 15.8513 98.1909 18.4654 98.1909 22.9459C98.1909 27.4264 100.491 30.0406 103.687 30.0406C106.884 30.0406 109.061 27.4501 109.061 22.9459Z" fill="#242424"/>
<path d="M142.501 20.0164V35.7788H135.141V32.9465C134.003 35.0047 131.654 36.457 128.046 36.457C123.349 36.457 119.451 33.4538 119.451 28.3937C119.451 22.9459 123.495 20.2582 131.266 20.2582H134.947V19.9677C134.947 17.0632 133.227 15.7304 130.492 15.7304C128.241 15.7304 126.304 16.7963 124.947 18.3459L120.566 13.8918C122.866 11.1554 126.594 9.53357 131.073 9.53357C138.24 9.53357 142.503 12.9482 142.503 20.0178L142.501 20.0164ZM134.995 25.0764H131.993C128.7 25.0764 126.618 25.9492 126.618 28.1033C126.618 30.0406 127.949 31.0815 130.08 31.0815C132.984 31.0815 134.994 28.5869 134.994 26.3355V25.0764H134.995Z" fill="#242424"/>
<path d="M146.474 30.1365L158.46 16.2391H147.104V10.1132H167.54V15.8028L155.579 29.6529H168V35.7789H146.476V30.1365H146.474Z" fill="#242424"/>
<path d="M57.1058 29.7641C57.6061 31.7069 58.087 33.572 58.5915 35.5287C55.9412 36.3362 53.298 36.678 50.6047 36.3042C49.5902 36.1638 48.5506 35.8734 47.6348 35.4231C45.0193 34.1376 44.1132 31.7862 44.077 29.0525C44.0242 25.1488 44.0603 21.245 44.0576 17.3398C44.0576 17.0716 44.0395 8.12863 44.0339 4.18316C44.0339 3.32986 44.5787 2.57384 45.3876 2.30145C47.3791 1.6316 49.1121 1.06042 51.5455 0.125122V10.2146H57.7173V16.285H51.6233C51.5942 16.6352 51.5552 16.8854 51.5552 17.1355C51.5511 20.2875 51.5525 23.4394 51.5539 26.5927C51.5539 26.6789 51.5538 26.7664 51.558 26.8526C51.6483 29.6321 52.6114 30.4437 55.3881 30.067C55.9287 29.9934 56.4624 29.8794 57.1086 29.7655L57.1058 29.7641Z" fill="#242424"/>
<path d="M18.2806 36.564C15.8027 36.564 13.4638 35.9498 11.4125 34.8644C9.1945 34.1806 7.10713 32.9618 5.35467 31.2094C3.60221 29.4569 2.3834 27.3695 1.69965 25.1501C0.614262 23.0975 0 20.7599 0 18.282C0 15.8041 0.614262 13.4666 1.69965 11.4139C2.3834 9.19451 3.60221 7.10852 5.35467 5.35466C7.10713 3.6022 9.1945 2.3834 11.4125 1.69965C13.4652 0.614265 15.8027 0 18.2806 0C20.7585 0 23.0975 0.614265 25.1487 1.69965C27.3668 2.3834 29.4541 3.6022 31.2066 5.35466C32.9591 7.10713 34.1778 9.19451 34.8616 11.4139C35.947 13.4666 36.5612 15.8041 36.5612 18.282C36.5612 20.7599 35.947 23.0975 34.8616 25.1501C34.1778 27.3681 32.9591 29.4555 31.2066 31.208C29.4541 32.9604 27.3668 34.1792 25.1487 34.863C23.0961 35.9484 20.7585 36.5626 18.2806 36.5626V36.564ZM12.9927 35.2577C14.6312 35.9039 16.4156 36.2597 18.2806 36.2597C20.1457 36.2597 21.9301 35.9039 23.5686 35.2577C21.8245 35.5912 20.0303 35.6079 18.2806 35.3091C16.531 35.6079 14.7368 35.5898 12.9927 35.2577ZM19.1742 35.1284C21.1351 35.3466 23.1322 35.1646 25.0334 34.5823C26.7886 33.6497 28.3298 32.367 29.5625 30.8258C27.9824 31.8056 26.2035 32.4949 24.3023 32.8187C22.7292 33.9333 20.9837 34.7032 19.1742 35.1284ZM11.5293 34.5823C13.429 35.1646 15.4275 35.3466 17.3884 35.1284C15.579 34.7032 13.8335 33.9333 12.2603 32.8187C10.3591 32.4949 8.58023 31.8056 7.0001 30.8258C8.2328 32.367 9.77403 33.6497 11.5293 34.5823ZM12.951 32.9188C14.5964 33.9805 16.4128 34.6754 18.2806 35.0006C20.1484 34.6754 21.9648 33.9805 23.6103 32.9188C23.0224 32.991 22.4235 33.0271 21.8162 33.0271C20.5974 33.0271 19.4133 32.8784 18.2806 32.5991C17.148 32.8784 15.9626 33.0271 14.7451 33.0271C14.1378 33.0271 13.5388 32.9896 12.951 32.9188ZM30.3213 30.3213C29.2957 31.7694 28.0144 33.0258 26.5454 34.0236C28.1617 33.3232 29.6737 32.3128 30.9926 30.994C32.3114 29.6751 33.3217 28.1617 34.0222 26.5454C33.0243 28.0144 31.7681 29.2957 30.32 30.3213H30.3213ZM2.53906 26.5454C3.23948 28.1617 4.24983 29.6737 5.56869 30.994C6.88756 32.3128 8.40098 33.3232 10.0159 34.0236C8.5469 33.0258 7.26554 31.7694 6.23991 30.3213C4.79181 29.2957 3.5355 28.0144 2.53766 26.5454H2.53906ZM18.9088 32.4296C20.6084 32.7784 22.4609 32.8145 24.1842 32.5296C24.8193 32.0752 25.4252 31.5638 25.9936 30.994C26.6982 30.2894 27.3139 29.5292 27.842 28.7287C26.3981 29.5153 24.8486 30.0434 23.2642 30.3116C21.9537 31.2427 20.4861 31.964 18.9088 32.4296ZM12.3798 32.5296C14.1017 32.8145 15.9542 32.7784 17.6552 32.4296C16.0779 31.964 14.6103 31.2427 13.2998 30.3116C11.7155 30.0434 10.1659 29.5153 8.722 28.7287C9.2501 29.5292 9.86715 30.2894 10.5704 30.994C11.1402 31.5638 11.7461 32.0752 12.3798 32.5296ZM28.4049 28.4049C27.8017 29.4041 27.0693 30.3463 26.2077 31.208C25.7782 31.6374 25.328 32.0349 24.8624 32.4004C26.7775 31.9876 28.5522 31.1941 30.1031 30.1031C31.1941 28.5522 31.9876 26.7761 32.4004 24.8624C32.0349 25.3294 31.6374 25.7783 31.208 26.2077C30.3463 27.0693 29.4041 27.8017 28.4049 28.4049ZM6.45811 30.1031C8.00906 31.1941 9.78375 31.9876 11.6988 32.4004C11.2319 32.0349 10.783 31.6374 10.3536 31.208C9.49192 30.3463 8.75952 29.4041 8.15637 28.4049C7.15715 27.8017 6.21492 27.0693 5.35328 26.2077C4.92385 25.7783 4.52637 25.3294 4.16087 24.8624C4.57362 26.7775 5.36717 28.5522 6.45672 30.1031H6.45811ZM13.9863 30.4117C15.2885 31.2552 16.7366 31.8959 18.2806 32.285C19.826 31.8945 21.2728 31.2552 22.5749 30.4103C21.1477 30.584 19.6996 30.5492 18.2806 30.3074C16.8617 30.5492 15.4136 30.584 13.9863 30.4103V30.4117ZM19.1742 30.1282C20.4945 30.2741 21.8314 30.2407 23.1447 30.0239C24.2259 29.2484 25.1959 28.3284 26.0256 27.2903C24.9805 27.9379 23.848 28.4591 22.65 28.8315C21.541 29.4152 20.3708 29.8474 19.1742 30.1282ZM13.4179 30.0239C14.7312 30.2407 16.0681 30.2741 17.3884 30.1282C16.1904 29.8474 15.0217 29.4152 13.9127 28.8315C12.7147 28.4591 11.5835 27.9379 10.537 27.2903C11.3667 28.3271 12.3367 29.2484 13.4179 30.0239ZM15.5289 29.2346C16.4225 29.582 17.3467 29.8377 18.2806 30.0003C19.2159 29.8377 20.1387 29.582 21.0323 29.2346C19.2479 29.5723 17.312 29.5723 15.5275 29.2346H15.5289ZM8.37874 28.1839C9.74763 29.0011 11.2221 29.5709 12.7411 29.8961C11.6099 29.0094 10.6093 27.9616 9.77683 26.7858C8.6025 25.9534 7.55323 24.9542 6.66657 23.8215C6.99177 25.3391 7.56157 26.815 8.37874 28.1839ZM26.7858 26.7858C25.9534 27.9602 24.9541 29.0094 23.8215 29.8961C25.3391 29.5723 26.815 29.0011 28.1839 28.1839C28.9997 26.815 29.5708 25.3391 29.896 23.8215C29.0094 24.9528 27.9615 25.9534 26.7858 26.7858ZM32.8173 24.3024C32.4935 26.2035 31.8042 27.981 30.8244 29.5625C32.3656 28.3298 33.6483 26.7886 34.5808 25.0334C35.1632 23.1336 35.3452 21.1352 35.127 19.1742C34.7018 20.9837 33.9319 22.7292 32.8173 24.3024ZM1.98038 25.0334C2.91289 26.7886 4.19702 28.3298 5.73685 29.5625C4.75708 27.9824 4.06776 26.2049 3.74395 24.3038C2.62938 22.7306 1.85948 20.9864 1.43422 19.1756C1.21603 21.1365 1.39808 23.1336 1.98038 25.0348V25.0334ZM14.028 28.5494C15.3733 28.9649 16.8019 29.1887 18.2806 29.1887C19.7593 29.1887 21.1879 28.9649 22.5332 28.5494C23.7784 27.8921 24.9458 27.0402 25.9923 25.9937C27.0388 24.9472 27.8907 23.7798 28.548 22.5346C28.9636 21.1894 29.1873 19.7607 29.1873 18.282C29.1873 16.8033 28.9636 15.3733 28.548 14.0294C27.8907 12.7842 27.0388 11.6168 25.9923 10.5704C24.9458 9.52388 23.7784 8.67197 22.5332 8.01462C21.1879 7.59909 19.7593 7.37535 18.2806 7.37535C16.8019 7.37535 15.3733 7.59909 14.028 8.01462C12.7828 8.67197 11.6154 9.52388 10.569 10.5704C9.5225 11.6168 8.67057 12.7842 8.01322 14.0294C7.59769 15.3747 7.37396 16.8033 7.37396 18.282C7.37396 19.7607 7.59769 21.1894 8.01322 22.5346C8.67057 23.7798 9.5225 24.9472 10.569 25.9937C11.6154 27.0402 12.7828 27.8921 14.028 28.5494ZM27.9712 24.08C27.4598 24.8305 26.872 25.5434 26.2077 26.2091C25.5434 26.8734 24.8291 27.4626 24.0786 27.9727C24.9569 27.5863 25.7894 27.1138 26.5662 26.5676C27.1124 25.7908 27.5835 24.9583 27.9712 24.08ZM9.9936 26.5676C10.7705 27.1138 11.6029 27.5849 12.4813 27.9727C11.7308 27.4612 11.0178 26.8734 10.3522 26.2091C9.68787 25.5448 9.09863 24.8305 8.58859 24.08C8.97494 24.9583 9.44743 25.7908 9.9936 26.5676ZM30.3102 23.2642C30.042 24.8485 29.5139 26.3981 28.7273 27.842C29.5278 27.3139 30.288 26.6969 30.9926 25.9937C31.5624 25.4239 32.0738 24.818 32.5282 24.1842C32.6561 23.4143 32.7214 22.6236 32.7214 21.8175C32.7214 20.8211 32.6199 19.8483 32.4268 18.9088C31.9612 20.4861 31.24 21.9551 30.3088 23.2642H30.3102ZM4.03163 24.1829C4.48608 24.818 4.99751 25.4225 5.5673 25.9923C6.2719 26.6969 7.03209 27.3125 7.83258 27.8406C7.04599 26.3967 6.51787 24.8485 6.24965 23.2628C5.31853 21.9523 4.59725 20.4848 4.13169 18.9074C3.93852 19.8469 3.83708 20.8197 3.83708 21.8161C3.83708 22.6208 3.90378 23.4129 4.03024 24.1829H4.03163ZM6.53734 23.1447C7.31281 24.2259 8.2342 25.196 9.27094 26.0256C8.62332 24.9806 8.10216 23.8479 7.72971 22.65C7.14602 21.5396 6.71383 20.3708 6.43311 19.1728C6.28579 20.4945 6.32054 21.83 6.53734 23.1433V23.1447ZM28.8288 22.65C28.4563 23.8465 27.9351 24.9792 27.2875 26.0256C28.3242 25.196 29.2456 24.2259 30.0211 23.1447C30.2379 21.8314 30.2727 20.4945 30.1253 19.1742C29.8446 20.3722 29.4125 21.541 28.8288 22.6514V22.65ZM32.5963 18.2806C32.8757 19.4133 33.0244 20.5987 33.0244 21.8161C33.0244 22.4234 32.9882 23.0224 32.9159 23.6103C33.9777 21.9648 34.6726 20.1484 34.9978 18.2806C34.6726 16.4128 33.9777 14.5964 32.9159 12.951C32.9882 13.5388 33.0244 14.1378 33.0244 14.7451C33.0244 15.9639 32.8757 17.148 32.5963 18.2806ZM1.55928 18.2806C1.88448 20.1484 2.57935 21.9648 3.64111 23.6103C3.56884 23.0224 3.53271 22.4234 3.53271 21.8161C3.53271 20.5973 3.68142 19.4133 3.96076 18.2806C3.68142 17.148 3.53271 15.9639 3.53271 14.7451C3.53271 14.1378 3.56884 13.5388 3.64111 12.951C2.57935 14.5964 1.88448 16.4128 1.55928 18.2806ZM35.3049 18.2806C35.6037 20.0303 35.5857 21.8231 35.2535 23.5686C35.8998 21.9301 36.2555 20.1457 36.2555 18.2806C36.2555 16.4156 35.8998 14.6312 35.2535 12.9927C35.5871 14.7368 35.6037 16.5309 35.3049 18.2806ZM1.30217 12.9927C0.655939 14.6312 0.300171 16.4142 0.300171 18.2806C0.300171 20.147 0.655939 21.9301 1.30217 23.5686C0.96863 21.8245 0.951971 20.0303 1.25077 18.2806C0.951971 16.5309 0.97002 14.7382 1.30217 12.9927ZM30.3046 18.2806C30.5464 19.6996 30.5812 21.1477 30.4075 22.5749C31.2511 21.2713 31.8917 19.8246 32.2822 18.2806C31.8917 16.7352 31.2525 15.2885 30.4075 13.9863C30.5812 15.4136 30.5464 16.8617 30.3046 18.2806ZM4.27345 18.2806C4.66396 19.826 5.30324 21.2727 6.1482 22.5749C5.97449 21.1477 6.00923 19.6996 6.25104 18.2806C6.00923 16.8617 5.97449 15.4136 6.1482 13.9863C5.30463 15.2899 4.66396 16.7366 4.27345 18.2806ZM6.55956 18.2806C6.72216 19.2159 6.97787 20.1387 7.32531 21.0337C7.15576 20.1415 7.06823 19.2215 7.06823 18.2806C7.06823 17.3398 7.15715 16.4198 7.32531 15.5276C6.97787 16.4225 6.72216 17.3439 6.55956 18.2806ZM29.2304 15.5276C29.3999 16.4198 29.4875 17.3398 29.4875 18.2806C29.4875 19.2215 29.3985 20.1415 29.2304 21.0337C29.5778 20.1401 29.8335 19.2159 29.9961 18.2806C29.8335 17.3453 29.5778 16.4225 29.2304 15.5276ZM30.3074 13.297C31.2385 14.6075 31.9598 16.0751 32.4254 17.6525C32.6186 16.713 32.72 15.7402 32.72 14.7437C32.72 13.9377 32.6533 13.1469 32.5268 12.377C32.0724 11.7419 31.5609 11.1374 30.9911 10.5676C30.2865 9.86298 29.5264 9.24732 28.7259 8.71922C29.5125 10.1632 30.0406 11.7113 30.3088 13.297H30.3074ZM4.02885 12.3784C3.901 13.1483 3.83569 13.9391 3.83569 14.7451C3.83569 15.7416 3.93713 16.7144 4.1303 17.6539C4.59586 16.0765 5.31714 14.6075 6.24826 13.2984C6.51648 11.7141 7.0446 10.1646 7.83119 8.72061C7.0307 9.24871 6.27051 9.86576 5.56591 10.569C4.99612 11.1388 4.48469 11.7447 4.03024 12.3784H4.02885ZM32.8131 12.2589C33.9277 13.8321 34.6976 15.5762 35.1229 17.387C35.3411 15.4261 35.159 13.429 34.5767 11.5293C33.6442 9.77404 32.36 8.23281 30.8202 7.00012C31.8 8.58025 32.4893 10.3591 32.8131 12.2603V12.2589ZM1.9762 11.5279C1.3939 13.4277 1.21186 15.4247 1.43005 17.3856C1.85531 15.5762 2.6252 13.8307 3.73978 12.2575C4.06358 10.3563 4.75291 8.57886 5.73267 6.99873C4.19284 8.23142 2.90872 9.77265 1.9762 11.5279ZM28.826 13.9099C29.4097 15.0203 29.8418 16.1891 30.1226 17.387C30.2699 16.0654 30.2351 14.7298 30.0183 13.4165C29.2429 12.3353 28.3215 11.3653 27.2847 10.5356C27.9323 11.5807 28.4535 12.7133 28.826 13.9113V13.9099ZM6.53455 13.4165C6.31776 14.7298 6.28301 16.0668 6.43032 17.387C6.71105 16.1891 7.14327 15.0203 7.72696 13.9099C8.09941 12.7119 8.62054 11.5807 9.26816 10.5342C8.23142 11.3639 7.31003 12.3353 6.53455 13.4152V13.4165ZM26.7803 9.77542C27.9546 10.6079 29.0038 11.6071 29.8905 12.7397C29.5653 11.2221 28.9955 9.74624 28.1783 8.37735C26.8095 7.56018 25.3349 6.99039 23.8159 6.66519C24.9472 7.55184 25.9478 8.59971 26.7803 9.77404V9.77542ZM8.37318 8.37735C7.5574 9.74624 6.98621 11.2221 6.66101 12.7397C7.54766 11.6085 8.59554 10.6079 9.77126 9.77542C10.6037 8.6011 11.6029 7.55184 12.7356 6.66658C11.218 6.99039 9.74207 7.56157 8.37318 8.37874V8.37735ZM24.0731 8.58859C24.8235 9.10001 25.5364 9.68787 26.2021 10.3522C26.8664 11.0165 27.4557 11.7308 27.9657 12.4799C27.5794 11.6015 27.1068 10.7691 26.5607 9.99222C25.7838 9.44606 24.9514 8.97493 24.0731 8.58859ZM9.98943 9.99222C9.44326 10.7691 8.97216 11.6015 8.58442 12.4799C9.09584 11.7294 9.6837 11.0165 10.348 10.3522C11.0123 9.68787 11.7266 9.09862 12.4771 8.58859C11.5988 8.97493 10.7663 9.44606 9.98943 9.99222ZM28.3993 8.15499C29.3985 8.75814 30.3407 9.49053 31.2024 10.3522C31.6318 10.7816 32.0293 11.2305 32.3948 11.6974C31.982 9.78237 31.1885 8.00768 30.0976 6.45673C28.5466 5.36578 26.7719 4.57224 24.8569 4.15949C25.3224 4.52499 25.7727 4.92246 26.2021 5.35188C27.0637 6.21352 27.7961 7.15577 28.3993 8.15499ZM6.45255 6.45673C5.3616 8.00768 4.56806 9.78237 4.1567 11.6974C4.5222 11.2305 4.91967 10.7816 5.3491 10.3522C6.21074 9.49053 7.15297 8.75814 8.1522 8.15499C8.75534 7.15577 9.48774 6.21352 10.3494 5.35188C10.7788 4.92246 11.2277 4.52499 11.6946 4.15949C9.77958 4.57224 8.00489 5.36578 6.45394 6.45673H6.45255ZM10.0103 2.53627C8.39403 3.2367 6.88199 4.24704 5.56313 5.5659C4.24427 6.88477 3.23392 8.39819 2.5321 10.0145C3.52993 8.54551 4.78628 7.26417 6.23438 6.23854C7.26001 4.79043 8.54134 3.53411 10.0103 2.53627ZM30.3144 6.23854C31.7625 7.26417 33.0188 8.54551 34.0166 10.0145C33.3162 8.39819 32.3059 6.88616 30.987 5.5659C29.6681 4.24704 28.1547 3.2367 26.5398 2.53627C28.0088 3.53411 29.2901 4.79043 30.3158 6.23854H30.3144ZM22.643 7.72973C23.841 8.10218 24.9722 8.62333 26.0187 9.27095C25.189 8.23421 24.219 7.31281 23.1378 6.53733C21.8245 6.32053 20.4875 6.28579 19.1673 6.4331C20.3652 6.71383 21.534 7.14604 22.643 7.72973ZM13.4096 6.53733C12.3284 7.31281 11.3583 8.23421 10.5287 9.27095C11.5737 8.62333 12.7064 8.10218 13.9043 7.72973C15.0134 7.14604 16.1835 6.71383 17.3801 6.4331C16.0598 6.28579 14.7229 6.32053 13.4096 6.53733ZM23.2559 6.24966C24.8402 6.51788 26.3898 7.04598 27.8337 7.83257C27.3056 7.03208 26.6886 6.27189 25.9854 5.56729C25.4156 4.9975 24.8096 4.48608 24.1759 4.03163C22.454 3.74674 20.6001 3.78287 18.9004 4.13169C20.4778 4.59726 21.9468 5.31853 23.2559 6.24966ZM12.3715 4.03163C11.7363 4.48608 11.1304 4.9975 10.562 5.56729C9.85742 6.27189 9.24176 7.03208 8.71366 7.83257C10.1576 7.04598 11.7071 6.51788 13.2914 6.24966C14.602 5.31992 16.0709 4.59726 17.6469 4.13169C15.9473 3.78287 14.0947 3.74674 12.3715 4.03163ZM18.2737 7.0696C19.2145 7.0696 20.1345 7.15855 21.0253 7.3267C20.1317 6.97927 19.2076 6.72356 18.2737 6.56096C17.3384 6.72356 16.4156 6.97927 15.522 7.3267C16.4142 7.15716 17.3342 7.0696 18.2737 7.0696ZM15.7735 6.0412C16.6102 6.0412 17.4468 6.11207 18.2737 6.25244C19.6926 6.01062 21.1407 5.97588 22.568 6.1496C21.2658 5.30602 19.8177 4.66535 18.2737 4.27484C16.7297 4.66535 15.2816 5.30463 13.9794 6.14821C14.5756 6.07594 15.1746 6.03981 15.7735 6.03981V6.0412ZM11.5223 1.98038C9.76707 2.91289 8.22587 4.19562 6.99318 5.73684C8.57331 4.75708 10.3522 4.06777 12.2533 3.74396C13.8265 2.628 15.572 1.85808 17.3815 1.43421C15.4219 1.21741 13.4235 1.39808 11.5223 1.98038ZM24.2954 3.74396C26.1966 4.06777 27.9755 4.75708 29.5556 5.73684C28.3229 4.19562 26.7816 2.91289 25.0264 1.98038C23.1266 1.39808 21.1282 1.21602 19.1673 1.43421C20.9767 1.85947 22.7222 2.62939 24.2954 3.74396ZM14.7382 3.53411C15.957 3.53411 17.141 3.68281 18.2737 3.96215C19.4063 3.68281 20.5918 3.53411 21.8092 3.53411C22.4165 3.53411 23.0155 3.57024 23.6033 3.64251C21.9579 2.58075 20.1415 1.88588 18.2737 1.56068C16.4059 1.88588 14.5895 2.58075 12.944 3.64251C13.5319 3.57024 14.1309 3.53411 14.7382 3.53411ZM20.7738 1.04091C21.7078 1.04091 22.6416 1.12847 23.5616 1.30497C21.9231 0.658736 20.1387 0.302963 18.2737 0.302963C16.4086 0.302963 14.6242 0.658736 12.9857 1.30497C14.7298 0.971428 16.524 0.954751 18.2737 1.25354C19.1006 1.11179 19.9372 1.0423 20.7738 1.0423V1.04091Z" fill="url(#paint0_linear_2873_108263)"/>
<defs>
<linearGradient id="paint0_linear_2873_108263" x1="-0.00138974" y1="18.2834" x2="36.5612" y2="18.2834" gradientUnits="userSpaceOnUse">
<stop offset="0.03" stop-color="#00E991"/>
<stop offset="1" stop-color="#00C9FF"/>
</linearGradient>
</defs>
</svg>