<svg width="152" height="40" viewBox="0 0 152 40" fill="none" xmlns="http://www.w3.org/2000/svg">
<path d="M54.3916 20.7405C54.3916 13.1683 59.5997 8.52808 66.3415 8.52808C73.0833 8.52808 78.2914 13.1671 78.2914 20.7405C78.2914 28.3139 73.0821 32.9529 66.3415 32.9529C59.601 32.9529 54.3916 28.3126 54.3916 20.7405ZM71.3737 20.7405C71.3737 16.7798 69.4266 14.3504 66.3402 14.3504C63.2538 14.3504 61.3068 16.7798 61.3068 20.7405C61.3068 24.7012 63.2551 27.1306 66.3402 27.1306C69.4254 27.1306 71.3737 24.7225 71.3737 20.7405Z" fill="#242424"/>
<path d="M105.495 20.7406C105.495 28.0062 101.425 32.953 95.7118 32.953C92.7799 32.953 90.5025 31.683 88.9499 29.7573V40.0001H82.1653V9.16378H88.8179V11.8557C90.3278 9.90743 92.6467 8.52942 95.821 8.52942C101.489 8.52942 105.493 13.2124 105.493 20.7418L105.495 20.7406ZM98.5783 20.7406C98.5783 16.648 96.566 14.3279 93.7208 14.3279C90.8756 14.3279 88.7526 16.6907 88.7526 20.7406C88.7526 24.7904 90.8316 27.1533 93.7208 27.1533C96.6099 27.1533 98.5783 24.8118 98.5783 20.7406Z" fill="#242424"/>
<path d="M128.804 18.0925V32.3399H122.152V29.7799C121.123 31.6403 119 32.9529 115.739 32.9529C111.493 32.9529 107.969 30.2384 107.969 25.6647C107.969 20.7405 111.625 18.3111 118.649 18.3111H121.976V18.0486C121.976 15.4232 120.422 14.2185 117.95 14.2185C115.915 14.2185 114.164 15.182 112.938 16.5826L108.977 12.5566C111.056 10.0833 114.426 8.61731 118.475 8.61731C124.953 8.61731 128.805 11.7037 128.805 18.0938L128.804 18.0925ZM122.02 22.6662H119.306C116.329 22.6662 114.448 23.4551 114.448 25.4022C114.448 27.1532 115.651 28.0941 117.577 28.0941C120.202 28.0941 122.018 25.8393 122.018 23.8043V22.6662H122.02Z" fill="#242424"/>
<path d="M132.396 27.2399L143.229 14.6783H132.965V9.14111H151.436V14.2838L140.625 26.8028H151.852V32.3399H132.397V27.2399H132.396Z" fill="#242424"/>
<path d="M51.6167 26.9032C52.069 28.6593 52.5036 30.3451 52.9596 32.1138C50.5641 32.8436 48.1749 33.1526 45.7404 32.8147C44.8234 32.6878 43.8838 32.4253 43.056 32.0183C40.6919 30.8564 39.8729 28.7309 39.8402 26.2601C39.7925 22.7315 39.8251 19.2029 39.8226 15.6731C39.8226 15.4307 39.8063 7.34728 39.8013 3.78103C39.8013 3.00975 40.2937 2.3264 41.0248 2.08019C42.8249 1.47472 44.3913 0.958435 46.5909 0.113037V9.23278H52.1694V14.7197H46.6612C46.6348 15.0362 46.5996 15.2624 46.5996 15.4885C46.5959 18.3374 46.5972 21.1864 46.5984 24.0367C46.5984 24.1145 46.5984 24.1937 46.6021 24.2716C46.6838 26.7839 47.5543 27.5175 50.0641 27.1771C50.5528 27.1105 51.0351 27.0075 51.6193 26.9045L51.6167 26.9032Z" fill="#242424"/>
<path d="M16.5236 33.0496C14.2838 33.0496 12.1697 32.4944 10.3156 31.5134C8.31076 30.8953 6.42402 29.7937 4.84 28.2096C3.25598 26.6256 2.15432 24.7389 1.53628 22.7328C0.555221 20.8774 0 18.7646 0 16.5248C0 14.2851 0.555221 12.1722 1.53628 10.3169C2.15432 8.31077 3.25598 6.42527 4.84 4.83999C6.42402 3.25597 8.31076 2.15432 10.3156 1.53629C12.1709 0.555224 14.2838 0 16.5236 0C18.7633 0 20.8775 0.555224 22.7315 1.53629C24.7364 2.15432 26.6231 3.25597 28.2071 4.83999C29.7912 6.42402 30.8928 8.31077 31.5108 10.3169C32.4919 12.1722 33.0471 14.2851 33.0471 16.5248C33.0471 18.7646 32.4919 20.8774 31.5108 22.7328C30.8928 24.7376 29.7912 26.6244 28.2071 28.2084C26.6231 29.7924 24.7364 30.8941 22.7315 31.5121C20.8762 32.4932 18.7633 33.0484 16.5236 33.0484V33.0496ZM11.7439 31.8688C13.2249 32.453 14.8378 32.7745 16.5236 32.7745C18.2093 32.7745 19.8223 32.453 21.3033 31.8688C19.7268 32.1703 18.1051 32.1854 16.5236 31.9153C14.9421 32.1854 13.3203 32.1691 11.7439 31.8688ZM17.3313 31.752C19.1037 31.9492 20.9088 31.7847 22.6273 31.2584C24.2138 30.4155 25.6069 29.256 26.7211 27.8629C25.2928 28.7485 23.6849 29.3716 21.9665 29.6643C20.5445 30.6717 18.9668 31.3676 17.3313 31.752ZM10.4211 31.2584C12.1383 31.7847 13.9446 31.9492 15.7171 31.752C14.0816 31.3676 12.5038 30.6717 11.0819 29.6643C9.36343 29.3716 7.75553 28.7485 6.32728 27.8629C7.44149 29.256 8.83459 30.4155 10.4211 31.2584ZM11.7062 29.7547C13.1935 30.7144 14.8353 31.3425 16.5236 31.6365C18.2119 31.3425 19.8536 30.7144 21.3409 29.7547C20.8096 29.82 20.2682 29.8527 19.7193 29.8527C18.6176 29.8527 17.5473 29.7183 16.5236 29.4658C15.4998 29.7183 14.4283 29.8527 13.3279 29.8527C12.779 29.8527 12.2375 29.8188 11.7062 29.7547Z" fill="url(#paint0_linear_logo)"/>
<defs>
<linearGradient id="paint0_linear_logo" x1="0" y1="0" x2="39.5451" y2="12.5113" gradientUnits="userSpaceOnUse">
<stop stop-color="#1E1E68"/>
<stop offset="1" stop-color="#00E991"/>
</linearGradient>
</defs>
</svg>
